<svg width="131" height="131" viewBox="0 0 131 131" fill="none" xmlns="http://www.w3.org/2000/svg">
<circle cx="65.5454" cy="65.5454" r="65.4545" fill="#FDD78C"/>
<g clip-path="url(#clip0_593_432)">
<mask id="mask0_593_432" style="mask-type:luminance" maskUnits="userSpaceOnUse" x="32" y="35" width="68" height="68">
<path d="M100 35H32V103H100V35Z" fill="white"/>
</mask>
<g mask="url(#mask0_593_432)">
<path d="M76.8794 49.1289H73.7061C73.2528 49.1289 72.875 48.7511 72.875 48.2978V40.44C72.875 39.9867 73.2528 39.6089 73.7061 39.6089H76.8794C77.3328 39.6089 77.7105 39.9867 77.7105 40.44V41.4978H82.0172V39.6844C82.0172 37.1156 79.9016 35 77.3328 35H72.6483C70.0794 35 67.9639 37.1156 67.9639 39.6844V49.0533C67.9639 51.6222 70.0794 53.7378 72.6483 53.7378H77.3328C79.9016 53.7378 82.0172 51.6222 82.0172 49.0533V47.1644H77.7105V48.2978C77.7105 48.8267 77.3328 49.1289 76.8794 49.1289Z" fill="#E01B22"/>
</g>
<path d="M32.0752 84.2627V103H46.053V98.3916L36.7596 98.316V95.8983H43.1063V91.2894H36.6841L36.7596 88.8716H46.053V84.2627H32.0752Z" fill="#E01B22"/>
<path d="M86.0215 84.2627V103H99.9993V98.3916L90.7059 98.316V95.8983H97.0526V91.2894H90.6304L90.7059 88.8716H99.9993V84.2627H86.0215Z" fill="#E01B22"/>
<path d="M85.1152 59.6309V64.7686H90.0263V78.3686H95.0886V64.7686H99.9997V59.6309H85.1152Z" fill="#E01B22"/>
<mask id="mask1_593_432" style="mask-type:luminance" maskUnits="userSpaceOnUse" x="32" y="35" width="68" height="68">
<path d="M100 35H32V103H100V35Z" fill="white"/>
</mask>
<g mask="url(#mask1_593_432)">
<path d="M77.6359 65.3731V68.0931V68.3953C77.6359 68.8486 77.2581 69.2264 76.8047 69.2264H73.707C73.2536 69.2264 72.8758 68.8486 72.8758 68.3953V68.0931V65.3731V65.0709C72.8758 64.6175 73.2536 64.2398 73.707 64.2398H76.8047C77.2581 64.2398 77.6359 64.6175 77.6359 65.0709V65.3731ZM80.2047 72.8531C81.4892 72.022 82.3203 70.5864 82.3203 68.9998V64.3153C82.3203 61.7464 80.2047 59.6309 77.6359 59.6309H68.1914V78.3686H72.8758V73.6842H75.1425L77.8625 78.3686H83.227L80.2047 72.8531Z" fill="#E01B22"/>
</g>
<path d="M95.3162 35V42.0267H90.6317V35H85.9473V53.7378H90.6317V46.7111H95.3162V53.7378H100.001V35H95.3162Z" fill="#E01B22"/>
<mask id="mask2_593_432" style="mask-type:luminance" maskUnits="userSpaceOnUse" x="32" y="35" width="68" height="68">
<path d="M100 35H32V103H100V35Z" fill="white"/>
</mask>
<g mask="url(#mask2_593_432)">
<path d="M59.2758 48.3733C59.2758 48.8267 58.898 49.2044 58.4446 49.2044H55.4224C54.9691 49.2044 54.5913 48.8267 54.5913 48.3733V40.44C54.5913 39.9867 54.9691 39.6089 55.4224 39.6089H58.4446C58.898 39.6089 59.2758 39.9867 59.2758 40.44V48.3733ZM59.3513 35H54.6669C52.098 35 49.9824 37.1156 49.9824 39.6844V49.0533C49.9824 51.6222 52.098 53.7378 54.6669 53.7378H59.3513C61.9202 53.7378 64.0358 51.6222 64.0358 49.0533V39.6844C64.0358 37.1156 61.9202 35 59.3513 35Z" fill="#E01B22"/>
</g>
<path d="M41.3689 35V42.0267H36.6844V35H32V53.7378H36.6844V46.7111H41.3689V53.7378H46.0533V35H41.3689Z" fill="#E01B22"/>
<mask id="mask3_593_432" style="mask-type:luminance" maskUnits="userSpaceOnUse" x="32" y="35" width="68" height="68">
<path d="M100 35H32V103H100V35Z" fill="white"/>
</mask>
<g mask="url(#mask3_593_432)">
<path d="M41.3689 65.3731V68.0931V68.3953C41.3689 68.8486 40.9911 69.2264 40.5378 69.2264H37.44C36.9867 69.2264 36.6089 68.8486 36.6089 68.3953V68.0931V65.3731V65.0709C36.6089 64.6175 36.9867 64.2398 37.44 64.2398H40.5378C40.9911 64.2398 41.3689 64.6175 41.3689 65.0709V65.3731ZM41.3689 59.6309H32V78.3686H36.6844V73.6842H41.3689C43.9378 73.6842 46.0533 71.5686 46.0533 68.9998V64.3153C46.0533 61.7464 43.9378 59.6309 41.3689 59.6309Z" fill="#E01B22"/>
</g>
<mask id="mask4_593_432" style="mask-type:luminance" maskUnits="userSpaceOnUse" x="32" y="35" width="68" height="68">
<path d="M100 35H32V103H100V35Z" fill="white"/>
</mask>
<g mask="url(#mask4_593_432)">
<path d="M59.199 65.3731V68.0931V68.3953C59.199 68.8486 58.8212 69.2264 58.3679 69.2264H55.2701C54.8167 69.2264 54.439 68.8486 54.439 68.3953V68.0931V65.3731V65.0709C54.439 64.6175 54.8167 64.2398 55.2701 64.2398H58.3679C58.8212 64.2398 59.199 64.6175 59.199 65.0709V65.3731ZM59.199 59.6309H54.5145C51.9456 59.6309 49.8301 61.7464 49.8301 64.3153V78.3686H54.5145V73.6842H59.199V78.3686H63.8834V64.3153C63.8834 61.7464 61.7679 59.6309 59.199 59.6309Z" fill="#E01B22"/>
</g>
<mask id="mask5_593_432" style="mask-type:luminance" maskUnits="userSpaceOnUse" x="32" y="35" width="68" height="68">
<path d="M100 35H32V103H100V35Z" fill="white"/>
</mask>
<g mask="url(#mask5_593_432)">
<path d="M77.635 90.0049V92.7249V93.0271C77.635 93.4805 77.2572 93.8583 76.8039 93.8583H73.7061C73.2528 93.8583 72.875 93.4805 72.875 93.0271V92.7249V90.0049V89.7027C72.875 89.2494 73.2528 88.8716 73.7061 88.8716H76.8039C77.2572 88.8716 77.635 89.2494 77.635 89.7027V90.0049ZM79.9016 97.4849C81.1861 96.6538 82.0172 95.2183 82.0172 93.6316V88.9471C82.0172 86.3783 79.9016 84.2627 77.3328 84.2627H67.9639V103H72.6483V98.316H74.915L77.635 103H82.9994L79.9016 97.4849Z" fill="#E01B22"/>
</g>
<mask id="mask6_593_432" style="mask-type:luminance" maskUnits="userSpaceOnUse" x="32" y="35" width="68" height="68">
<path d="M100 35H32V103H100V35Z" fill="white"/>
</mask>
<g mask="url(#mask6_593_432)">
<path d="M59.2751 89.9294V92.6494V92.9516C59.2751 93.4049 58.8974 93.7827 58.444 93.7827H55.4218C54.9685 93.7827 54.5907 93.4049 54.5907 92.9516V92.6494V89.9294V89.6271C54.5907 89.1738 54.9685 88.796 55.4218 88.796H58.444C58.8974 88.796 59.2751 89.1738 59.2751 89.6271V89.9294ZM61.844 97.4849C63.1285 96.6538 63.9596 95.2183 63.9596 93.6316V88.9471C63.9596 86.3783 61.844 84.2627 59.2751 84.2627H49.9062V103H54.5907V98.316H56.8574L59.5774 103H64.9418L61.844 97.4849Z" fill="#E01B22"/>
</g>
</g>
<defs>
<clipPath id="clip0_593_432">
<rect width="68" height="68" fill="white" transform="translate(32 35)"/>
</clipPath>
</defs>
</svg>
