<svg width="153" height="153" viewBox="0 0 153 153" fill="none" xmlns="http://www.w3.org/2000/svg">
<circle cx="76.5" cy="76.5" r="76.5" fill="#FDD78C"/>
<g clip-path="url(#clip0_593_431)">
<path fill-rule="evenodd" clip-rule="evenodd" d="M126.932 95.8344C125.433 97.4553 121.436 97.7631 115.049 97.7631C111.922 97.7631 109.786 97.6901 108.007 97.5197L131.859 64.4588L131.181 63.1057H107.84C105.741 63.1057 105.741 62.7544 105.162 61.6953H103.005C102.819 66.7649 102.262 73.0379 102.262 73.0379L104.847 73.1249C104.847 73.1249 105.377 70.8518 106.342 68.8849C107.529 66.4866 108.087 66.1823 114.109 66.1701H123.675L99.5007 99.424L100.245 100.824H130.414C131.294 97.5718 132.654 90.3127 132.654 90.3127L130.083 89.7823C130.083 89.7823 128.777 93.8397 126.934 95.8344H126.932ZM91.2555 95.8344C89.7633 97.4553 85.7633 97.7631 79.3772 97.7631C76.2503 97.7631 74.1111 97.6901 72.3355 97.5197L96.1859 64.4588L95.5077 63.1057H72.1685C70.0642 63.1057 70.0642 62.7544 69.4885 61.6953H67.3285C67.1442 66.7649 66.5894 73.0379 66.5894 73.0379L69.1703 73.1249C69.1703 73.1249 69.7007 70.8518 70.6694 68.8849C71.8537 66.4866 72.4155 66.1823 78.4329 66.1701H87.9981L63.8277 99.424L64.5755 100.824H94.739C95.6172 97.5718 96.9755 90.3127 96.9755 90.3127L94.405 89.7823C94.405 89.7823 93.099 93.8397 91.2555 95.8344ZM47.4798 65.6953C47.4798 65.6953 48.6416 65.6988 50.1546 65.9127C52.6242 66.2605 52.9024 67.704 53.019 68.7771C53.2885 70.664 53.4085 73.5301 53.4085 78.071V90.2831L30.3998 63.1057H21.3477V65.6744C21.3477 65.6744 24.1059 65.7127 25.372 66.6049C27.7111 68.2536 27.499 69.8188 27.499 72.9875V85.4049C27.499 89.5336 27.3894 92.671 27.1616 95.0084C27.0364 96.264 26.6433 97.2762 25.339 97.7875C24.2468 98.2136 22.1964 98.2397 22.1964 98.2397V100.824H36.6033V98.2397C36.6033 98.2397 34.2642 98.1944 33.0433 97.7423C31.6364 97.2258 31.3111 96.2223 31.1807 94.8901C30.9546 92.7162 30.845 89.6136 30.845 85.4049V72.5353L54.2433 100.861H56.7529V78.071C56.7529 73.184 56.8485 70.4362 57.0903 68.5805C57.1755 67.6501 57.5442 66.6675 58.5268 66.2397C59.7859 65.6918 61.8311 65.6901 61.8311 65.6901V63.1075L47.4798 63.1057V65.6971V65.6953Z" fill="black"/>
</g>
<defs>
<clipPath id="clip0_593_431">
<rect width="111.304" height="40" fill="white" transform="translate(21.3477 61.5)"/>
</clipPath>
</defs>
</svg>
