<svg width="153" height="154" viewBox="0 0 153 154" fill="none" xmlns="http://www.w3.org/2000/svg">
<circle cx="76.5" cy="77" r="76.5" fill="#FDD78C"/>
<g clip-path="url(#clip0_593_435)">
<path fill-rule="evenodd" clip-rule="evenodd" d="M109.893 52.1562L89.0416 109.018H69.5469L90.3978 52.1562H109.893ZM140.422 52.1562L119.561 109.018H100.076L120.927 52.1562H140.422Z" fill="#C80000"/>
<path d="M55.1909 94.276C56.6807 94.3139 58.157 94.5689 59.5732 95.0329L59.2503 98.2267C58.093 97.5499 56.7803 97.1842 55.44 97.1652C54.1755 97.126 52.9533 97.6229 52.0748 98.5336C51.1962 99.4443 50.743 100.684 50.8269 101.947C50.8269 104.854 52.8843 106.562 55.7536 106.562C57.0204 106.536 58.2714 106.276 59.4441 105.796L59.5917 108.962C58.1645 109.358 56.6902 109.556 55.2093 109.553C51.279 109.553 46.7305 107.568 46.7305 101.974C46.7305 96.8329 50.3287 94.276 55.1909 94.276ZM19.4583 94.276C20.7489 94.2583 22.0345 94.442 23.2686 94.8206L23.0103 97.8668C21.9722 97.3991 20.8458 97.1598 19.7074 97.1652C18.7109 97.1652 17.0595 97.2483 17.0595 98.5406C17.0595 100.931 24.0436 99.3252 24.0436 104.661C24.0436 108.491 20.8329 109.525 17.5854 109.525C16.0961 109.525 14.6145 109.314 13.1845 108.898L13.489 105.658C14.741 106.313 16.1354 106.649 17.5485 106.636C18.794 106.636 19.9841 106.378 19.9841 105.196C19.9841 102.427 13 104.181 13 98.7991C13 95.2452 16.469 94.276 19.4583 94.276ZM32.5962 94.276C33.8869 94.2583 35.1724 94.442 36.4066 94.8206L36.1575 97.8668C35.1162 97.3989 33.9868 97.1597 32.8453 97.1652C31.8489 97.1652 30.2066 97.2483 30.2066 98.5406C30.2066 100.931 37.1815 99.3252 37.1815 104.661C37.1815 108.491 33.9709 109.525 30.7233 109.525C29.2341 109.525 27.7524 109.314 26.3225 108.898L26.6269 105.658C27.8793 106.312 29.2735 106.648 30.6864 106.636C31.9411 106.636 33.1221 106.378 33.1221 105.196C33.1221 102.427 26.1379 104.181 26.1379 98.7991C26.1379 95.2452 29.6069 94.276 32.5962 94.276ZM43.9719 94.5252V109.294H40.0324V94.5252H43.9719ZM35.1426 73.1652C36.433 73.1521 37.7179 73.3357 38.953 73.7098L38.7039 76.7652C37.671 76.3034 36.5506 76.0704 35.4194 76.0821C34.423 76.0821 32.7807 76.1744 32.7807 77.4575C32.7807 79.8575 39.7556 78.2421 39.7556 83.5775C39.7556 87.4083 36.545 88.4514 33.2974 88.4514C31.8074 88.4527 30.3251 88.2382 28.8965 87.8144L29.2379 84.5098C30.4927 85.1569 31.8857 85.4896 33.2974 85.4791C34.5521 85.4791 35.7331 85.2298 35.7331 84.0391C35.7331 81.2698 28.7489 83.0237 28.7489 77.6514C28.7489 74.0883 32.2179 73.1652 35.1426 73.1652ZM48.3451 73.1191C49.6325 73.1059 50.9143 73.2895 52.1462 73.6637L51.8971 76.7191C50.8643 76.2573 49.7439 76.0243 48.6127 76.036C47.6255 76.036 45.974 76.1283 45.974 77.4114C45.974 79.8114 52.9581 78.196 52.9581 83.5314C52.9581 87.3621 49.7382 88.4052 46.4999 88.4052C45.0099 88.4072 43.5274 88.1926 42.099 87.7683L42.3758 84.5098C43.6336 85.1577 45.0299 85.4903 46.4445 85.4791C47.6901 85.4791 48.871 85.2298 48.871 84.0391C48.871 81.2698 41.8868 83.0237 41.8868 77.6514C41.8868 74.0883 45.3651 73.1191 48.3451 73.1191ZM66.0592 73.3683V76.1375H59.6009V79.1837H65.7086V81.9529H59.5917V85.3498H66.299V88.1191H55.6522V73.3683H66.0592ZM42.7449 51.9344C44.0331 51.9193 45.3156 52.1062 46.546 52.4883L46.2969 55.5344C45.2634 55.0756 44.143 54.8457 43.0124 54.8606C42.0252 54.8606 40.3738 54.9437 40.3738 56.236C40.3738 58.6267 47.3487 57.0114 47.3487 62.3468C47.3487 66.1775 44.138 67.2206 40.8904 67.2206C39.4005 67.2213 37.9183 67.0068 36.4896 66.5837L36.7941 63.3252C38.0488 63.9723 39.4419 64.3049 40.8535 64.2944C42.1083 64.2944 43.2892 64.0452 43.2892 62.8544C43.2892 60.0852 36.3051 61.8391 36.3051 56.4667C36.3051 52.9037 39.7556 51.9344 42.7449 51.9344ZM67.4339 52.1929L70.7091 63.7867L74.0305 52.1929H78.0715L73.0341 66.9621H68.1627L63.2175 52.1929H67.4339ZM56.8608 52.1929C59.6286 52.1929 61.6676 53.3929 61.6676 55.9314C61.7577 57.5629 60.6584 59.0215 59.0658 59.3837C61.031 59.7806 62.0458 60.8421 62.0458 62.6421C62.0458 66.1775 58.9366 66.916 56.2888 66.916H50.0704V52.1929H56.8608ZM55.2093 60.7037H54.0007V64.1744H55.1724C56.6024 64.1744 58.1063 63.9621 58.1063 62.4575C58.1063 60.9529 56.5655 60.7037 55.2093 60.7037ZM55.1447 54.9806H54.0007V58.036H55.1078C56.3995 58.036 57.728 57.7129 57.728 56.4667C57.728 55.2206 56.4548 54.9806 55.1447 54.9806Z" fill="black"/>
</g>
<defs>
<clipPath id="clip0_593_435">
<rect width="127" height="60" fill="white" transform="translate(13 51.5)"/>
</clipPath>
</defs>
</svg>
